. 
  
http://www.torrenting.com/        :     Greatest Movie Tracker on The Net!!!
 
http://www.Torrenting.com          :     Once & For all ;)


               www . Torrenting . Com 

(((((((((((((= Enjoy No RAR releases =))))))))))))))))))))


...................................NFO:....................................

.[pre]
      *********** ****    ****      ***      ******** *********** ****    *** **********
           *+*     +*+*+* *+*+*+   *+* *+*   *+*    *+*    *+*     *+*+*   *+* *+*        
           +*+     +*+ +*+*+ +*+  +*+   +*+  +*+           +*+     *+*+*+  +*+ +*+        
           +$+     +$+  +*+  +$+ +$++*++$++* *$*           +$+     +$+ +*+ +$+ +$++*++$  
           +$+     +$+       +$+ +$+     +$+ +$+   +$+$    +$+     +$+  +$+$+$ +$+        
           $+$     $+$       $+$ $+$     $+$ $+$    $+$    $+$     $+$   $+$+$ $+$        
       $$$$$$$$$$$ $$$       $$$ $$$     $$$  $$$$$$$$ $$$$$$$$$$$ $$$    $$$$ $$$$$$$$$$     
                                                



                           Another Fine Release Brought to you from - IMAGiNE                   
                                                 

********************************************************************************************************************                                
                               Fright Night 2011 720p TS XViD - IMAGiNE
********************************************************************************************************************


Ripper ...........: IMAGiNE                                     IMDB Rating.......:7.0/10                             
Video Codec.......: XVID                                        Release Date......:22/08/11
Audio Codec.......:MP3                                          Theatre Date......:19/08/11
Audio Bitrate.....:128                                          Runtime.......:1h 38mn
Subtitles.........:NIL                                          Language..........:ENGLISH
Resolution...... 1280 x 544                                     IMDb URL..........:http://www.imdb.com/title/tt1438176/


[color=yellow]DETAILS:[/color]

Video
ID                               : 0
Format                           : MPEG-4 Visual
Format profile                   : Advanced Simple@L5
Format settings, BVOP            : 2
Format settings, QPel            : No
Format settings, GMC             : No warppoints
Format settings, Matrix          : Default (MPEG)
Muxing mode                      : Packed bitstream
Codec ID                         : XVID
Codec ID/Hint                    : XviD
Duration                         : 1h 38mn
Bit rate                         : 3 247 Kbps
Width                            : 1 280 pixels
Height                           : 544 pixels
Display aspect ratio             : 2.35:1
Frame rate                       : 29.970 fps
Color space                      : YUV
Chroma subsampling               : 4:2:0
Bit depth                        : 8 bits
Scan type                        : Progressive
Compression mode                 : Lossy
Bits/(Pixel*Frame)               : 0.156
Stream size                      : 2.23 GiB (96%)
Writing library                  : XviD 64

Audio
ID                               : 1
Format                           : MPEG Audio
Format version                   : Version 1
Format profile                   : Layer 3
Mode                             : Joint stereo
Mode extension                   : MS Stereo
Codec ID                         : 55
Codec ID/Hint                    : MP3
Duration                         : 1h 38mn
Bit rate mode                    : Constant
Bit rate                         : 128 Kbps
Channel(s)                       : 2 channels
Sampling rate                    : 44.1 KHz
Compression mode                 : Lossy
Delay relative to video          : 15ms
Stream size                      : 89.9 MiB (4%)
Alignment                        : Split accross interleaves
Interleave, duration             : 33 ms (1.00 video frame)



[color=yellow]SOURCES:[/color]

VIDEO: ....... Thanks Mate :D
AUDIO: ....... Thanks Matey :P

[color=yellow]NOTES:[/color]

IMAGiNE bringing you another release..........
Fright Night 720p TS...........
Heres another amazing TS for ya :P
Video was very nice, so we made a script 
to crop resize and sharpen.......
made some adjustments to this and that :D
Audio is nice LiNE we filtered 
synced and muxed to our encode.
Enjoy :)

[color=yellow]SCREENS:[/color]

[IMG]http://i.imgur.com/4cxD3.jpg[/IMG]
[IMG]http://i.imgur.com/CAR36.jpg[/IMG]
[IMG]http://i.imgur.com/b9Rrk.jpg[/IMG]
[IMG]http://i.imgur.com/6R3b3.jpg[/IMG]
[IMG]http://i.imgur.com/FoA5v.jpg[/IMG]
[IMG]http://i.imgur.com/vtE1H.jpg[/IMG]

[color=yellow]GREETS:[/color]

FLAWL3SS,ViSiON,Rx,ELEKTRI4KA,ADDiCTED,Autotron,CiNEDUB,
And to all the other p2p grps past and present 

[COLOR=RED]Looking for these,syncers,cammers,audio,silver supplier.....Have anything to offer????......
Contact us imaginegroup@hushmail.com[/COLOR]

[/pre]